<svg width="14" height="15" viewBox="0 0 14 15" fill="none" xmlns="http://www.w3.org/2000/svg">
<path d="M5.85984 13.64H5.25984C3.0945 13.64 2.01117 13.64 1.3385 12.9567C0.665837 12.2733 0.666504 11.1733 0.666504 8.97332V5.63999C0.666504 3.43999 0.666504 2.33999 1.33984 1.65732C2.01117 0.972656 3.0945 0.972656 5.25984 0.972656H7.2285C9.3945 0.972656 10.6598 1.00999 11.3325 1.69266C12.0058 2.37666 11.9992 3.43932 11.9992 5.63932V6.43066M3.6665 8.99932H6.33317M3.6665 5.66599H8.99984" stroke="black" stroke-linecap="round" stroke-linejoin="round"/>
<path opacity="0.93" d="M12.84 8.91877C12.236 8.2421 11.874 8.28277 11.472 8.40343C11.19 8.44343 10.2247 9.5701 9.82204 9.9301C9.16137 10.5821 8.49737 11.2541 8.45404 11.3421C8.3287 11.5454 8.2127 11.9054 8.15604 12.3081C8.05137 12.9121 7.9007 13.5914 8.09137 13.6501C8.28204 13.7088 8.81604 13.5968 9.41937 13.5081C9.82204 13.4348 10.1034 13.3548 10.3047 13.2341C10.5867 13.0648 11.1094 12.4694 12.0114 11.5834C12.576 10.9881 13.1214 10.5768 13.2827 10.1748C13.4434 9.57077 13.2027 9.24877 12.84 8.91877Z" stroke="black" stroke-linecap="round" stroke-linejoin="round"/>
</svg>
