<svg width="24" height="25" viewBox="0 0 24 25" fill="none" xmlns="http://www.w3.org/2000/svg">
<path d="M6 7.75586V9.10586H7.5V7.75586H6ZM16.5 7.75586V9.10586H18V7.75586H16.5ZM6 10.4559V11.8059H7.5V10.4559H6ZM16.5 10.4559V11.8059H18V10.4559H16.5ZM6 13.1559V14.5059H7.5V13.1559H6ZM16.5 13.1559V14.5059H18V13.1559H16.5ZM6 15.8559V17.2059H7.5V15.8559H6ZM16.5 15.8559V17.2059H18V15.8559H16.5Z" fill="white"/>
<path d="M2.25 4.98096C1.65326 4.98096 1.08097 5.21801 0.65901 5.63997C0.237053 6.06192 0 6.63422 0 7.23096L0 9.48096C0 9.67987 0.0790176 9.87063 0.21967 10.0113C0.360322 10.1519 0.551088 10.231 0.75 10.231C1.34674 10.231 1.91903 10.468 2.34099 10.89C2.76295 11.3119 3 11.8842 3 12.481C3 13.0777 2.76295 13.65 2.34099 14.0719C1.91903 14.4939 1.34674 14.731 0.75 14.731C0.551088 14.731 0.360322 14.81 0.21967 14.9506C0.0790176 15.0913 0 15.282 0 15.481L0 17.731C0 18.3277 0.237053 18.9 0.65901 19.3219C1.08097 19.7439 1.65326 19.981 2.25 19.981H21.75C22.3467 19.981 22.919 19.7439 23.341 19.3219C23.7629 18.9 24 18.3277 24 17.731V15.481C24 15.282 23.921 15.0913 23.7803 14.9506C23.6397 14.81 23.4489 14.731 23.25 14.731C22.6533 14.731 22.081 14.4939 21.659 14.0719C21.2371 13.65 21 13.0777 21 12.481C21 11.8842 21.2371 11.3119 21.659 10.89C22.081 10.468 22.6533 10.231 23.25 10.231C23.4489 10.231 23.6397 10.1519 23.7803 10.0113C23.921 9.87063 24 9.67987 24 9.48096V7.23096C24 6.63422 23.7629 6.06192 23.341 5.63997C22.919 5.21801 22.3467 4.98096 21.75 4.98096H2.25ZM1.5 7.23096C1.5 7.03204 1.57902 6.84128 1.71967 6.70063C1.86032 6.55997 2.05109 6.48096 2.25 6.48096H21.75C21.9489 6.48096 22.1397 6.55997 22.2803 6.70063C22.421 6.84128 22.5 7.03204 22.5 7.23096V8.80596C21.6523 8.97809 20.8901 9.438 20.3427 10.1078C19.7953 10.7775 19.4962 11.6159 19.4962 12.481C19.4962 13.346 19.7953 14.1844 20.3427 14.8542C20.8901 15.5239 21.6523 15.9838 22.5 16.156V17.731C22.5 17.9299 22.421 18.1206 22.2803 18.2613C22.1397 18.4019 21.9489 18.481 21.75 18.481H2.25C2.05109 18.481 1.86032 18.4019 1.71967 18.2613C1.57902 18.1206 1.5 17.9299 1.5 17.731V16.156C2.34772 15.9838 3.10986 15.5239 3.65728 14.8542C4.20471 14.1844 4.50376 13.346 4.50376 12.481C4.50376 11.6159 4.20471 10.7775 3.65728 10.1078C3.10986 9.438 2.34772 8.97809 1.5 8.80596V7.23096Z" fill="white"/>
</svg>
