<svg width="24" height="25" viewBox="0 0 24 25" fill="none" xmlns="http://www.w3.org/2000/svg">
<path d="M22 22.481H2M20 22.481V11.481M4 22.481V11.481" stroke="white" stroke-linecap="round"/>
<path d="M16.5279 2.48096H7.47195C6.26895 2.48096 5.66795 2.48096 5.18495 2.77996C4.70095 3.07796 4.43195 3.61596 3.89495 4.69196L2.48995 8.24096C2.16595 9.06096 1.88195 10.027 2.42795 10.72C2.68516 11.047 3.03797 11.2856 3.43722 11.4027C3.83647 11.5198 4.26229 11.5094 4.65537 11.3731C5.04845 11.2367 5.38923 10.9812 5.63023 10.642C5.87124 10.3029 6.00048 9.89701 5.99995 9.48096C5.99995 10.0114 6.21066 10.5201 6.58573 10.8952C6.96081 11.2702 7.46951 11.481 7.99995 11.481C8.53038 11.481 9.03909 11.2702 9.41416 10.8952C9.78923 10.5201 9.99995 10.0114 9.99995 9.48096C9.99995 10.0114 10.2107 10.5201 10.5857 10.8952C10.9608 11.2702 11.4695 11.481 11.9999 11.481C12.5304 11.481 13.0391 11.2702 13.4142 10.8952C13.7892 10.5201 13.9999 10.0114 13.9999 9.48096C13.9999 10.0114 14.2107 10.5201 14.5857 10.8952C14.9608 11.2702 15.4695 11.481 15.9999 11.481C16.5304 11.481 17.0391 11.2702 17.4142 10.8952C17.7892 10.5201 17.9999 10.0114 17.9999 9.48096C17.9999 9.89668 18.1294 10.3021 18.3704 10.6408C18.6114 10.9795 18.952 11.2347 19.3448 11.3709C19.7376 11.5071 20.1631 11.5175 20.5621 11.4006C20.961 11.2838 21.3137 11.0455 21.5709 10.719C22.1169 10.026 21.8329 9.05996 21.5089 8.23996L20.1049 4.69196C19.5679 3.61596 19.2989 3.07796 18.8149 2.77996C18.3319 2.48096 17.7309 2.48096 16.5279 2.48096Z" stroke="white" stroke-linejoin="round"/>
<path d="M9.5 21.981V18.981C9.5 18.046 9.5 17.579 9.701 17.231C9.83265 17.0029 10.022 16.8136 10.25 16.682C10.598 16.481 11.065 16.481 12 16.481C12.935 16.481 13.402 16.481 13.75 16.682C13.978 16.8136 14.1674 17.0029 14.299 17.231C14.5 17.579 14.5 18.046 14.5 18.981V21.981" stroke="white" stroke-linecap="round"/>
</svg>
