<svg width="22" height="22" viewBox="0 0 22 22" fill="none" xmlns="http://www.w3.org/2000/svg">
<path d="M21 9.5V11C21 15.714 21 18.071 19.535 19.535C18.072 21 15.714 21 11 21C6.286 21 3.929 21 2.464 19.535C1 18.072 1 15.714 1 11C1 6.286 1 3.929 2.464 2.464C3.93 1 6.286 1 11 1H12.5" stroke="black" stroke-width="1.2" stroke-linecap="round"/>
<path d="M15.6522 2.45512L16.3012 1.80612C16.8176 1.28988 17.5179 0.999906 18.248 1C18.9782 1.00009 19.6784 1.29024 20.1947 1.80662C20.7109 2.323 21.0009 3.0233 21.0008 3.75347C21.0007 4.48365 20.7106 5.18388 20.1942 5.70012L19.5442 6.34912C19.5442 6.34912 18.1662 6.26812 16.9502 5.05112C15.7332 3.83512 15.6522 2.45612 15.6522 2.45612L9.68719 8.42012C9.28319 8.82412 9.08118 9.02612 8.90718 9.24912C8.70185 9.51245 8.52719 9.79512 8.38319 10.0971C8.26219 10.3521 8.17218 10.6231 7.99118 11.1651L7.41218 12.9001M7.41218 12.9001L7.03818 14.0221C6.9942 14.153 6.98759 14.2935 7.0191 14.4279C7.05061 14.5623 7.11899 14.6853 7.21656 14.7829C7.31412 14.8806 7.437 14.9491 7.57137 14.9808C7.70574 15.0124 7.84628 15.006 7.97718 14.9621L9.10019 14.5881M7.41218 12.9001L9.10019 14.5881M19.5452 6.34812L13.5802 12.3131C13.1762 12.7171 12.9742 12.9191 12.7512 13.0931C12.4883 13.298 12.204 13.4737 11.9032 13.6171C11.6482 13.7381 11.3772 13.8281 10.8352 14.0091L9.10019 14.5881" stroke="black" stroke-width="1.2"/>
</svg>
