<svg width="27" height="27" viewBox="0 0 27 27" fill="none" xmlns="http://www.w3.org/2000/svg">
<path d="M1 13.5C1 7.6075 1 4.66125 2.83 2.83C4.6625 1 7.6075 1 13.5 1C19.3925 1 22.3387 1 24.1687 2.83C26 4.6625 26 7.6075 26 13.5C26 19.3925 26 22.3387 24.1687 24.1687C22.34 26 19.3925 26 13.5 26C7.6075 26 4.66125 26 2.83 24.1687C1 22.34 1 19.3925 1 13.5Z" stroke="#888888" stroke-width="1.5"/>
<path d="M18.5 11C19.8807 11 21 9.88071 21 8.5C21 7.11929 19.8807 6 18.5 6C17.1193 6 16 7.11929 16 8.5C16 9.88071 17.1193 11 18.5 11Z" stroke="#888888" stroke-width="1.5"/>
<path d="M1 14.1249L3.19 12.2086C3.73892 11.7287 4.44968 11.4753 5.1784 11.4997C5.90712 11.524 6.59937 11.8244 7.115 12.3399L12.4775 17.7024C12.8936 18.1184 13.4432 18.3743 14.0294 18.4251C14.6157 18.4759 15.2011 18.3182 15.6825 17.9799L16.0563 17.7174C16.7507 17.2296 17.5902 16.9918 18.4373 17.0429C19.2844 17.094 20.0892 17.4309 20.72 17.9986L24.75 21.6249" stroke="#888888" stroke-width="1.5" stroke-linecap="round"/>
</svg>
