<svg width="4100" height="1731" viewBox="0 0 4100 1731" fill="none" xmlns="http://www.w3.org/2000/svg">
<path d="M3007.85 1085.99C2991.61 1068.98 2941.71 1040.21 3007.85 963.26C3073.98 886.383 3160.15 823.013 3241.19 791.474C3322.29 760.007 3402.47 736.937 3422.43 728.468C3442.39 719.999 3442.99 739.127 3419.97 750.443C3396.95 761.76 3300.87 844.112 3315.24 910.184C3329.61 976.256 3426.15 1066.64 3496.75 979.614C3567.34 892.589 3547.98 774.609 3544.72 754.094C3541.53 733.579 3543.32 720.729 3548.31 732.848C3553.3 744.968 3573.8 794.54 3609.52 873.826C3645.25 953.112 3654.44 1131.03 3536.14 1211.85C3417.84 1292.67 3238.19 1170.89 3194.01 1103.36C3149.83 1035.83 3143.91 960.632 3144.18 925.296C3092.81 975.672 3052.89 1033.35 3033.26 1062.55C3013.57 1091.75 3014.44 1092.99 3007.72 1085.99H3007.85Z" fill="#951913"/>
<path d="M3403.33 685.323C3369.39 695.909 3299.2 703.648 3227.61 649.111C3156.02 594.501 3146.84 527.772 3174.58 506.454C3200 486.961 3259.01 447.318 3389.89 561.429C3478.38 638.525 3490.82 641.81 3502.86 653.126C3514.91 664.516 3507.45 649.622 3496.54 625.822C3485.63 602.021 3424.82 481.413 3370.33 419.137C3315.83 356.862 3216.9 278.671 3096.4 306.633C2975.91 334.594 2936.12 458.05 2947.03 526.531C2957.94 595.012 2975.37 652.323 2995.2 685.25C3015.03 718.176 3058.81 748.328 3144.37 744.897C3229.94 741.465 3351.03 718.103 3377.71 711.386C3404.39 704.67 3416.97 695.179 3403.33 685.323Z" fill="#951913"/>
<path d="M3530.28 618.665C3511.72 575.737 3467.07 465.86 3451.5 383.435C3435.94 301.082 3478.65 198.361 3568.87 180.62C3659.09 162.879 3791.7 204.347 3865.75 320.21C3939.81 436.073 3937.61 504.189 3831.22 559.091C3724.83 613.993 3653.97 636.333 3642.86 639.326C3631.75 642.319 3600.28 643.196 3624.1 626.258C3647.98 609.32 3722.44 568.071 3739.07 486.959C3755.64 405.848 3700.28 373.141 3673.2 366.351C3646.12 359.561 3562.15 364.088 3546.92 466.298C3535.01 546.022 3539.06 580.044 3538.93 602.676C3538.8 625.236 3542.66 647.284 3530.28 618.665Z" fill="#951913"/>
<path d="M3661.29 666.776C3694.69 651.809 3772.67 625.599 3840 620.27C3907.34 614.94 3946.46 614.429 3979.06 615.816C4011.66 617.203 4031.02 618.445 4058.3 677.508C4085.72 736.79 4090.44 777.747 4098.89 843.016C4107.74 911.132 4063.49 1032.98 3972.87 1048.39C3863.89 1066.93 3787.57 1045.1 3684.31 899.305C3581.05 753.582 3577.06 712.989 3584.91 716.932C3592.69 720.874 3621.5 750.88 3654.1 784.318C3686.71 817.828 3798.28 881.126 3859.36 864.115C3920.44 847.177 3943.8 763.365 3857.03 709.996C3770.27 656.701 3680.85 669.112 3670.47 672.105C3660.02 675.098 3657.1 669.258 3657.1 669.258L3661.36 666.703L3661.29 666.776Z" fill="#951913"/>
<path d="M863.824 453.085C1363.5 226.178 2304.97 253.702 2853.09 478.638C2847.77 431.183 2875.04 382.925 2875.04 382.925C2270.17 133.093 1334.56 185.367 863.824 453.158V453.085Z" fill="#951913"/>
<path d="M2877.64 1.60742L2947.24 70.8186L3028.67 19.6403L2990.22 113.601L3059.81 182.812L2966.46 171.642L2927.94 265.676L2908.78 164.779L2815.43 153.682L2896.87 102.504L2877.64 1.60742Z" fill="#951913"/>
<path d="M2518.02 0L2572.51 47.2359L2630.26 4.96451L2606.18 76.4389L2660.67 123.675L2591.27 120.608L2567.19 192.083L2548.42 118.71L2479.03 115.644L2536.78 73.3726L2518.02 0Z" fill="#951913"/>
<path d="M2177.62 453.086L2138.56 444.763L2119.34 482.946L2114.48 439.653L2075.42 431.257L2111.48 412.859L2106.63 369.565L2133.77 401.47L2169.84 382.999L2150.54 421.182L2177.62 453.086Z" fill="#951913"/>
<path d="M2550.68 1001.81L2336.04 1003.05C2335.04 1003.05 2334.11 1003.71 2333.71 1004.73L2302.04 1085.11C2301.64 1086.13 2300.64 1086.79 2299.71 1086.79L2209.49 1087.38C2207.63 1087.38 2206.36 1085.33 2207.09 1083.43L2407.9 567.416C2408.3 566.394 2409.29 565.737 2410.29 565.737L2484.28 565.299C2485.28 565.299 2486.27 565.956 2486.67 567.051L2680.62 1083.36C2681.29 1085.26 2680.02 1087.3 2678.23 1087.3L2585.41 1086.57C2584.41 1086.57 2583.48 1085.92 2583.08 1084.82L2553.14 1003.56C2552.81 1002.47 2551.81 1001.81 2550.75 1001.81M2372.77 902.083C2371.9 904.492 2373.5 907.047 2375.83 907.047L2510.36 904.565C2512.62 904.565 2514.22 902.01 2513.35 899.673L2446.42 718.615C2445.36 715.694 2441.43 715.694 2440.37 718.615L2372.77 902.156V902.083Z" fill="#951913"/>
<path d="M1495.91 1001.81L1281.27 1003.05C1280.27 1003.05 1279.34 1003.71 1278.94 1004.73L1247.27 1085.11C1246.87 1086.13 1245.87 1086.79 1244.94 1086.79L1154.72 1087.38C1152.85 1087.38 1151.59 1085.33 1152.32 1083.43L1353.12 567.416C1353.52 566.394 1354.52 565.737 1355.52 565.737L1429.51 565.299C1430.5 565.299 1431.5 565.956 1431.9 567.051L1625.85 1083.36C1626.52 1085.26 1625.25 1087.3 1623.45 1087.3L1530.64 1086.57C1529.64 1086.57 1528.71 1085.92 1528.31 1084.82L1498.37 1003.56C1498.04 1002.47 1497.04 1001.81 1495.97 1001.81M1317.99 902.083C1317.13 904.492 1318.72 907.047 1321.05 907.047L1455.59 904.565C1457.85 904.565 1459.45 902.01 1458.58 899.673L1391.65 718.615C1390.58 715.694 1386.66 715.694 1385.59 718.615L1317.99 902.156V902.083Z" fill="#951913"/>
<path d="M97.9395 990.203L333.939 990.86C335.47 990.86 336.734 992.247 336.734 993.926L336.135 1083.07C336.135 1084.75 334.871 1086.13 333.34 1086.13L4.12517 1086.72C2.59487 1086.72 1.3307 1085.33 1.3307 1083.65L0 570.19C0 568.511 1.26417 567.124 2.79447 567.124H91.6852C93.2156 567.124 94.4797 568.438 94.4797 570.117L95.0785 987.136C95.0785 988.816 96.3427 990.203 97.873 990.203H97.9395Z" fill="#951913"/>
<path d="M962.699 666.34L815.99 666.194C814.592 666.194 813.528 665.026 813.528 663.493L813.262 570.189C813.262 568.656 814.326 567.488 815.723 567.488L1210.68 566.539C1212.07 566.539 1213.14 567.707 1213.14 569.24V662.617C1213.14 664.15 1212.14 665.318 1210.74 665.318L1064.03 666.048C1062.63 666.048 1061.57 667.216 1061.57 668.75L1061.77 1083.94C1061.77 1085.48 1060.71 1086.64 1059.31 1086.64L969.02 1086.86C967.623 1086.86 966.558 1085.7 966.558 1084.16L965.095 668.969C965.095 667.435 964.03 666.267 962.633 666.267L962.699 666.34Z" fill="#951913"/>
<path d="M1932.84 729.126C1923.72 688.096 1889.72 666.413 1851.6 666.413C1789.66 666.413 1729.11 666.413 1669.83 666.559C1668.36 666.559 1667.16 665.245 1667.1 663.565L1666.9 571.503C1666.9 568.875 1668.1 567.561 1670.42 567.561C1722.12 567.269 1778.21 566.976 1838.76 566.757C1882.01 566.538 1924.19 574.204 1959.92 601.217C2001.37 632.61 2024.79 675.977 2030.18 731.244C2037.7 808.485 2009.55 876.382 1943.35 909.601C1940.62 910.988 1939.63 914.711 1941.22 917.486L2036.63 1082.41C2038.16 1085.11 2037.56 1086.43 2034.64 1086.43L1930.24 1086.86C1928.11 1086.86 1926.45 1085.91 1925.32 1083.94L1789.59 849.954C1787.99 847.252 1789.79 843.675 1792.78 843.748C1824.59 844.843 1868.17 848.275 1894.65 832.724C1930.44 811.698 1942.02 770.887 1932.77 729.053L1932.84 729.126Z" fill="#951913"/>
<path d="M2177.63 1084.24C2177.63 1085.7 2176.56 1086.86 2175.23 1086.86H2084.34C2083.01 1086.86 2081.95 1085.7 2081.95 1084.24V569.97C2081.95 568.51 2083.01 567.342 2084.34 567.342H2175.23C2176.56 567.342 2177.63 568.51 2177.63 569.97V1084.24Z" fill="#951913"/>
<path d="M1670.56 800.091C1670.43 748.329 1721.99 708.613 1763.91 699.195C1766.44 698.61 1767.7 699.779 1767.7 702.553L1767.5 1083.36C1767.5 1085.26 1766.64 1086.21 1764.91 1086.28L1674.82 1086.79C1672.96 1086.79 1671.43 1085.19 1671.36 1083.07C1670.96 985.749 1670.7 891.423 1670.56 800.091Z" fill="#951913"/>
<path d="M1985.67 1443.07C1994.45 1591.78 1888.73 1720.42 1749.6 1730.28C1610.48 1740.13 1490.58 1627.56 1481.8 1478.84C1473.01 1330.12 1578.74 1201.49 1717.86 1191.63C1856.99 1181.77 1976.88 1294.35 1985.67 1443.07ZM1891.19 1460.3C1891.19 1364.95 1820.79 1287.63 1733.83 1287.63C1646.87 1287.63 1576.48 1364.88 1576.48 1460.3C1576.48 1555.72 1646.87 1632.96 1733.83 1632.96C1820.79 1632.96 1891.19 1555.72 1891.19 1460.3Z" fill="#951913"/>
<path d="M958.436 1426.79C955.842 1440.07 955.11 1456.28 956.174 1475.63C957.039 1491.62 960.166 1507.17 965.556 1522.21C989.309 1588.57 1035.75 1624.05 1104.88 1628.72C1154.65 1632.08 1198.36 1614.71 1236.09 1576.67C1237.75 1575.06 1239.35 1575.06 1240.94 1576.67L1300.16 1636.9C1302.02 1638.8 1302.09 1640.77 1300.49 1642.96C1252.06 1707.35 1174.81 1729.26 1100.95 1726.92C1057.71 1725.53 1018.32 1713.63 982.788 1691.22C911.33 1646.17 871.342 1579.3 862.759 1490.67C858.501 1446.64 864.023 1403.42 879.193 1361.08C913.858 1264.34 997.492 1203.82 1091.84 1195.86C1177.87 1188.64 1248.13 1216.6 1302.62 1279.82C1304.09 1281.43 1303.95 1284.06 1302.42 1285.44L1243.67 1341.44C1241.41 1343.63 1237.88 1343.7 1235.55 1341.44C1203.88 1312.38 1169.49 1296.32 1132.29 1293.4C1047.26 1286.47 976.334 1333.12 958.436 1426.86V1426.79Z" fill="#951913"/>
<path d="M742.726 1348.67C742.992 1349.62 743.325 1350.49 743.724 1351.37C788.103 1466.28 829.954 1575.5 869.276 1679.03C873.667 1690.64 877.792 1702.68 881.718 1715.02C882.184 1716.55 881.119 1718.09 879.722 1718.09L789.168 1717.87C787.571 1717.87 786.107 1716.77 785.508 1715.24L756.965 1641.94C756.166 1639.9 754.303 1638.58 752.241 1638.58L538.198 1639.02C535.337 1639.02 532.742 1640.99 531.744 1643.84L505.995 1715.24C505.13 1717.58 503.599 1718.67 501.337 1718.67H412.779C410.384 1718.67 408.787 1715.97 409.719 1713.56L609.856 1204.48C610.787 1202.07 612.917 1200.61 615.312 1200.61H684.309C686.571 1200.61 688.633 1202 689.432 1204.26C711.255 1259.38 729.02 1307.49 742.793 1348.6M571.731 1542.5C571.066 1544.4 572.33 1546.37 574.127 1546.37L717.576 1546.96C719.373 1546.96 720.637 1544.91 719.971 1543.09L648.845 1346.92C647.98 1344.58 644.92 1344.58 644.121 1346.92L571.731 1542.5Z" fill="#951913"/>
<path d="M1441.02 1716.77C1441.02 1718.09 1440.02 1719.18 1438.82 1719.18L1346.87 1719.33C1345.67 1719.33 1344.68 1718.23 1344.68 1716.92L1343.88 1203.53C1343.88 1202.22 1344.87 1201.12 1346.07 1201.12L1438.02 1200.97C1439.22 1200.97 1440.22 1202.07 1440.22 1203.38L1441.02 1716.77Z" fill="#951913"/>
<path d="M2129.58 1718.96L2038.7 1719.62C2037.3 1719.62 2036.17 1718.38 2036.17 1716.85L2035.57 1204.11C2035.57 1202.58 2036.7 1201.34 2038.1 1201.34L2108.09 1200.83C2108.96 1200.83 2109.69 1201.27 2110.16 1201.92L2317.48 1513.81C2318.94 1515.93 2322.07 1514.83 2322.07 1512.13L2321.4 1204.77C2321.4 1203.24 2322.54 1202 2323.93 1202L2414.82 1201.34C2416.22 1201.34 2417.35 1202.58 2417.35 1204.11L2417.95 1716.77C2417.95 1718.31 2416.82 1719.55 2415.42 1719.55L2345.42 1720.2C2344.56 1720.2 2343.83 1719.77 2343.36 1719.11L2136.04 1407.22C2134.57 1405.03 2131.45 1406.13 2131.45 1408.83L2132.11 1716.19C2132.11 1717.72 2130.98 1718.96 2129.58 1718.96Z" fill="#951913"/>
<path d="M2793.67 1385.25C2794.67 1391.6 2796.8 1397.44 2800.26 1402.84L2919.69 1714.8C2920.42 1716.77 2919.09 1718.89 2917.23 1718.89L2826.87 1718.53C2824.55 1718.53 2822.88 1717.36 2822.02 1714.95L2796.47 1644.79C2795.27 1641.58 2793.14 1639.97 2790.01 1639.9L2578.57 1639.24C2575.77 1639.24 2573.24 1641.14 2572.18 1643.99L2545.7 1715.46C2545.23 1716.77 2544.03 1717.65 2542.77 1717.65L2450.89 1717.43C2449.22 1717.43 2448.09 1715.61 2448.69 1713.93L2646.23 1204.04C2647.23 1201.56 2648.89 1200.32 2651.36 1200.32L2719.75 1200.54C2722.35 1200.54 2724.08 1201.85 2725.01 1204.41L2793.54 1385.25M2609.77 1543.82C2609.24 1545.21 2610.24 1546.74 2611.63 1546.74L2755.48 1546.52C2756.88 1546.52 2757.81 1544.91 2757.35 1543.6L2685.09 1346.99C2684.42 1345.17 2682.09 1345.17 2681.5 1346.99L2609.84 1543.96L2609.77 1543.82Z" fill="#951913"/>
<path d="M3045.84 1616.17L3267.07 1615.66C3268.4 1615.66 3269.4 1616.75 3269.4 1618.21L3269.27 1715.02C3269.27 1716.48 3268.27 1717.58 3266.94 1717.58L2952.29 1718.6C2950.96 1718.6 2949.97 1717.5 2949.97 1716.04L2949.57 1203.75C2949.57 1202.29 2950.56 1201.2 2951.9 1201.2L3040.59 1200.9C3041.92 1200.9 3042.92 1202 3042.92 1203.46L3043.51 1613.54C3043.51 1615 3044.51 1616.1 3045.84 1616.1V1616.17Z" fill="#951913"/>
<path d="M96.1407 1410.07L97.1387 1715.68C97.1387 1716.92 96.1407 1718.01 95.0096 1718.01L7.11682 1718.96C4.9877 1718.96 3.32433 1717.14 3.25779 1714.87L2.25977 1205.94C2.25977 1203.09 3.59047 1201.63 6.18533 1201.63C22.4864 1201.34 42.1808 1201.19 65.2684 1201.19C72.3211 1201.19 77.4443 1203.82 80.7046 1209.15C145.177 1312.6 211.779 1414.89 280.376 1515.93C285.034 1522.72 287.495 1521.92 287.828 1513.45C288.826 1488.48 286.032 1462.85 285.899 1438.03C285.433 1361.66 285.433 1283.91 285.899 1204.55C285.899 1202.51 287.362 1200.97 289.225 1200.97H379.58C380.644 1200.97 381.509 1202 381.509 1203.09L382.774 1714.95C382.774 1717.28 381.776 1718.45 379.646 1718.38L306.325 1717.87C304.462 1717.87 302.932 1717.06 301.867 1715.39L98.4029 1409.19C97.671 1408.1 96.0741 1408.61 96.0741 1410L96.1407 1410.07Z" fill="#951913"/>
<path d="M830.229 809.217C824.308 708.029 766.821 623.632 686.846 583.113C569.811 591.436 503.942 646.045 467.68 704.013C496.09 673.058 535.213 653.857 578.461 653.857C665.355 653.857 735.816 731.099 735.816 826.52C735.816 921.941 665.422 999.183 578.461 999.183C491.499 999.183 421.105 921.941 421.105 826.52C421.105 822.504 421.904 818.781 422.17 814.839C418.511 694.741 490.901 611.44 565.42 557.706C564.422 557.706 563.49 557.706 562.492 557.706C423.368 567.562 317.71 696.201 326.493 844.918C335.275 993.634 455.105 1106.21 594.296 1096.36C733.421 1086.5 839.078 957.86 830.296 809.144L830.229 809.217Z" fill="#951913"/>
</svg>
