<svg width="24" height="25" viewBox="0 0 24 25" fill="none" xmlns="http://www.w3.org/2000/svg">
<path d="M2.5 6.98096C2.5 5.09496 2.5 4.15296 3.086 3.56696C3.672 2.98096 4.614 2.98096 6.5 2.98096C8.386 2.98096 9.328 2.98096 9.914 3.56696C10.5 4.15296 10.5 5.09496 10.5 6.98096C10.5 8.86696 10.5 9.80896 9.914 10.395C9.328 10.981 8.386 10.981 6.5 10.981C4.614 10.981 3.672 10.981 3.086 10.395C2.5 9.80896 2.5 8.86696 2.5 6.98096ZM13.5 17.981C13.5 16.095 13.5 15.153 14.086 14.567C14.672 13.981 15.614 13.981 17.5 13.981C19.386 13.981 20.328 13.981 20.914 14.567C21.5 15.153 21.5 16.095 21.5 17.981C21.5 19.867 21.5 20.809 20.914 21.395C20.328 21.981 19.386 21.981 17.5 21.981C15.614 21.981 14.672 21.981 14.086 21.395C13.5 20.809 13.5 19.867 13.5 17.981ZM2.5 17.981C2.5 16.095 2.5 15.153 3.086 14.567C3.672 13.981 4.614 13.981 6.5 13.981C8.386 13.981 9.328 13.981 9.914 14.567C10.5 15.153 10.5 16.095 10.5 17.981C10.5 19.867 10.5 20.809 9.914 21.395C9.328 21.981 8.386 21.981 6.5 21.981C4.614 21.981 3.672 21.981 3.086 21.395C2.5 20.809 2.5 19.867 2.5 17.981ZM13.5 6.98096C13.5 5.09496 13.5 4.15296 14.086 3.56696C14.672 2.98096 15.614 2.98096 17.5 2.98096C19.386 2.98096 20.328 2.98096 20.914 3.56696C21.5 4.15296 21.5 5.09496 21.5 6.98096C21.5 8.86696 21.5 9.80896 20.914 10.395C20.328 10.981 19.386 10.981 17.5 10.981C15.614 10.981 14.672 10.981 14.086 10.395C13.5 9.80896 13.5 8.86696 13.5 6.98096Z" stroke="white"/>
</svg>
