<svg width="24" height="25" viewBox="0 0 24 25" fill="none" xmlns="http://www.w3.org/2000/svg">
<path d="M4 10.624C4 6.12696 7.582 2.48096 12 2.48096C16.418 2.48096 20 6.12696 20 10.624C20 15.086 17.447 20.294 13.463 22.155C13.0051 22.3694 12.5056 22.4805 12 22.4805C11.4944 22.4805 10.9949 22.3694 10.537 22.155C6.553 20.293 4 15.087 4 10.625V10.624Z" stroke="white"/>
<path d="M12 13.481C13.6569 13.481 15 12.1378 15 10.481C15 8.8241 13.6569 7.48096 12 7.48096C10.3431 7.48096 9 8.8241 9 10.481C9 12.1378 10.3431 13.481 12 13.481Z" stroke="white"/>
</svg>
