<svg width="24" height="25" viewBox="0 0 24 25" fill="none" xmlns="http://www.w3.org/2000/svg">
<path d="M12 16.4812C6.23997 16.4812 5.21997 10.7412 5.03997 6.18718C4.98897 4.92118 4.96397 4.28718 5.43997 3.70218C5.91497 3.11618 6.48397 3.02018 7.62297 2.82818C9.06981 2.59118 10.5339 2.47511 12 2.48118C13.784 2.48118 15.253 2.63818 16.377 2.82818C17.516 3.02018 18.085 3.11618 18.561 3.70218C19.037 4.28818 19.011 4.92118 18.961 6.18718C18.781 10.7412 17.761 16.4812 12.001 16.4812H12Z" stroke="white"/>
<path d="M19 5.48096L19.949 5.79696C20.939 6.12696 21.434 6.29196 21.717 6.68496C22 7.07796 22 7.60096 22 8.64296V8.71596C22 9.57596 22 10.007 21.793 10.359C21.586 10.711 21.209 10.92 20.457 11.339L17.5 12.981M5 5.48096L4.051 5.79696C3.061 6.12696 2.566 6.29196 2.283 6.68496C2 7.07796 2 7.60096 2 8.64296V8.71596C2 9.57596 2 10.007 2.207 10.359C2.414 10.711 2.791 10.92 3.543 11.339L6.5 12.981" stroke="white"/>
<path d="M12 16.481V19.481" stroke="white" stroke-linecap="round"/>
<path d="M15.5 22.481H8.5L8.84 20.785C8.88529 20.5583 9.00768 20.3544 9.18634 20.2078C9.365 20.0613 9.58891 19.9811 9.82 19.981H14.18C14.4111 19.9811 14.635 20.0613 14.8137 20.2078C14.9923 20.3544 15.1147 20.5583 15.16 20.785L15.5 22.481Z" stroke="white" stroke-linecap="round" stroke-linejoin="round"/>
<path d="M18 22.481H6" stroke="white" stroke-linecap="round"/>
</svg>
