<svg width="20" height="19" viewBox="0 0 20 19" fill="none" xmlns="http://www.w3.org/2000/svg">
<path d="M8.43234 18.1305H7.60734C4.63 18.1305 3.14042 18.1305 2.2155 17.1909C1.29059 16.2513 1.2915 14.7388 1.2915 11.7138V7.13047C1.2915 4.10547 1.2915 2.59297 2.21734 1.65431C3.14042 0.712891 4.63 0.712891 7.60734 0.712891H10.3143C13.2925 0.712891 15.0323 0.764224 15.9573 1.70289C16.8831 2.64339 16.8739 4.10456 16.8739 7.12956V8.21764M5.4165 11.7496H9.08317M5.4165 7.16622H12.7498" stroke="white" stroke-linecap="round" stroke-linejoin="round"/>
<path opacity="0.93" d="M18.03 11.6394C17.1995 10.709 16.7018 10.7649 16.149 10.9308C15.7613 10.9858 14.434 12.535 13.8803 13.03C12.9719 13.9265 12.0589 14.8505 11.9993 14.9715C11.827 15.2511 11.6675 15.7461 11.5895 16.2997C11.4456 17.1302 11.2385 18.0643 11.5006 18.145C11.7628 18.2257 12.497 18.0717 13.3266 17.9497C13.8803 17.8489 14.2671 17.7389 14.544 17.573C14.9317 17.3402 15.6504 16.5216 16.8906 15.3033C17.667 14.4847 18.4169 13.9192 18.6387 13.3664C18.8596 12.5359 18.5287 12.0932 18.03 11.6394Z" stroke="white" stroke-linecap="round" stroke-linejoin="round"/>
</svg>
