<svg width="87" height="87" viewBox="0 0 87 87" fill="none" xmlns="http://www.w3.org/2000/svg">
<rect width="87" height="87" rx="43.5" fill="#ECFDF3"/>
<g clip-path="url(#clip0_1418_3561)">
<path d="M60.2255 31.592C59.9884 31.353 59.7065 31.1634 59.396 31.0339C59.0853 30.9046 58.7522 30.8379 58.4156 30.8379C58.079 30.8379 57.7461 30.9046 57.4353 31.0339C57.1249 31.1634 56.843 31.353 56.6059 31.592L37.6157 50.6077L29.6372 42.6038C29.3912 42.3662 29.1008 42.1791 28.7825 42.0536C28.4643 41.9283 28.1243 41.8669 27.7824 41.8727C27.4403 41.8788 27.1028 41.952 26.789 42.0883C26.4754 42.2247 26.1915 42.4214 25.9539 42.6674C25.7161 42.9134 25.5294 43.204 25.4039 43.5222C25.2786 43.8405 25.217 44.1803 25.223 44.5224C25.2287 44.8645 25.302 45.2019 25.4383 45.5155C25.5748 45.8292 25.7716 46.1132 26.0176 46.3508L35.8058 56.139C36.0428 56.3778 36.3247 56.5676 36.6353 56.6971C36.946 56.8266 37.2791 56.8931 37.6156 56.8931C37.9522 56.8931 38.2853 56.8266 38.596 56.6971C38.9064 56.5675 39.1883 56.3778 39.4255 56.139L60.2255 35.339C60.4842 35.1003 60.6907 34.8106 60.8319 34.4882C60.9731 34.1657 61.046 33.8175 61.046 33.4654C61.046 33.1133 60.9731 32.7652 60.8319 32.4428C60.6907 32.1203 60.4842 31.8307 60.2255 31.592Z" fill="#059658"/>
</g>
<defs>
<clipPath id="clip0_1418_3561">
<rect width="36.5546" height="36.5546" fill="white" transform="translate(24.8571 25.5884)"/>
</clipPath>
</defs>
</svg>
