<svg width="24" height="25" viewBox="0 0 24 25" fill="none" xmlns="http://www.w3.org/2000/svg">
<path d="M4.318 21.017C5.636 22.481 7.758 22.481 12 22.481C16.242 22.481 18.364 22.481 19.682 21.016C21 19.553 21 17.195 21 12.481C21 7.76696 21 5.40996 19.682 3.94496C18.364 2.47996 16.242 2.48096 12 2.48096C7.758 2.48096 5.636 2.48096 4.318 3.94496C3 5.41096 3 7.76696 3 12.481C3 17.195 3 19.553 4.318 21.017Z" stroke="white"/>
<path d="M7 8.48096C7 8.01596 7 7.78396 7.051 7.59296C7.11919 7.33882 7.25303 7.1071 7.43909 6.92105C7.62514 6.73499 7.85687 6.60115 8.111 6.53296C8.304 6.48096 8.536 6.48096 9 6.48096H15C15.465 6.48096 15.697 6.48096 15.888 6.53196C16.1421 6.60015 16.3739 6.73399 16.5599 6.92005C16.746 7.1061 16.8798 7.33783 16.948 7.59196C17 7.78496 17 8.01696 17 8.48096C17 8.94496 17 9.17796 16.949 9.36896C16.8808 9.62309 16.747 9.85481 16.5609 10.0409C16.3749 10.2269 16.1431 10.3608 15.889 10.429C15.697 10.481 15.464 10.481 15 10.481H9C8.535 10.481 8.303 10.481 8.112 10.43C7.85787 10.3618 7.62614 10.2279 7.44009 10.0419C7.25403 9.85581 7.12019 9.62409 7.052 9.36996C7 9.17696 7 8.94496 7 8.48096Z" stroke="white"/>
<path d="M8 14.481C8.55228 14.481 9 14.0332 9 13.481C9 12.9287 8.55228 12.481 8 12.481C7.44772 12.481 7 12.9287 7 13.481C7 14.0332 7.44772 14.481 8 14.481Z" fill="white"/>
<path d="M8 18.481C8.55228 18.481 9 18.0332 9 17.481C9 16.9287 8.55228 16.481 8 16.481C7.44772 16.481 7 16.9287 7 17.481C7 18.0332 7.44772 18.481 8 18.481Z" fill="white"/>
<path d="M12 14.481C12.5523 14.481 13 14.0332 13 13.481C13 12.9287 12.5523 12.481 12 12.481C11.4477 12.481 11 12.9287 11 13.481C11 14.0332 11.4477 14.481 12 14.481Z" fill="white"/>
<path d="M12 18.481C12.5523 18.481 13 18.0332 13 17.481C13 16.9287 12.5523 16.481 12 16.481C11.4477 16.481 11 16.9287 11 17.481C11 18.0332 11.4477 18.481 12 18.481Z" fill="white"/>
<path d="M16 14.481C16.5523 14.481 17 14.0332 17 13.481C17 12.9287 16.5523 12.481 16 12.481C15.4477 12.481 15 12.9287 15 13.481C15 14.0332 15.4477 14.481 16 14.481Z" fill="white"/>
<path d="M16 18.481C16.5523 18.481 17 18.0332 17 17.481C17 16.9287 16.5523 16.481 16 16.481C15.4477 16.481 15 16.9287 15 17.481C15 18.0332 15.4477 18.481 16 18.481Z" fill="white"/>
</svg>
