<svg width="18" height="20" viewBox="0 0 18 20" fill="none" xmlns="http://www.w3.org/2000/svg">
<path d="M17.5 4H0.5M15.833 6.5L15.373 13.4C15.196 16.054 15.108 17.381 14.243 18.19C13.378 18.999 12.047 19 9.387 19H8.613C5.953 19 4.622 19 3.757 18.19C2.892 17.381 2.803 16.054 2.627 13.4L2.167 6.5M6.5 9L7 14M11.5 9L11 14" stroke="black" stroke-linecap="round"/>
<path d="M3.5 4H3.61C4.01245 3.98972 4.40242 3.85822 4.72892 3.62271C5.05543 3.3872 5.30325 3.05864 5.44 2.68L5.474 2.577L5.571 2.286C5.654 2.037 5.696 1.913 5.751 1.807C5.85921 1.59939 6.01451 1.41999 6.20448 1.28316C6.39444 1.14633 6.6138 1.05586 6.845 1.019C6.962 1 7.093 1 7.355 1H10.645C10.907 1 11.038 1 11.155 1.019C11.3862 1.05586 11.6056 1.14633 11.7955 1.28316C11.9855 1.41999 12.1408 1.59939 12.249 1.807C12.304 1.913 12.346 2.037 12.429 2.286L12.526 2.577C12.6527 2.99827 12.9148 3.36601 13.2717 3.62326C13.6285 3.88051 14.0603 4.01293 14.5 4" stroke="black"/>
</svg>
