<svg width="52" height="39" viewBox="0 0 52 39" fill="none" xmlns="http://www.w3.org/2000/svg">
<path d="M2.48105 32.8761C1.83699 32.261 -0.142702 31.221 2.48105 28.4389C5.10481 25.6594 8.52309 23.3683 11.7381 22.228C14.9558 21.0903 18.1365 20.2562 18.9284 19.95C19.7202 19.6438 19.744 20.3354 18.8307 20.7445C17.9174 21.1536 14.1058 24.1311 14.676 26.5199C15.2461 28.9088 19.0762 32.1766 21.8768 29.0302C24.6774 25.8838 23.9093 21.6182 23.7799 20.8765C23.6532 20.1348 23.7245 19.6702 23.9225 20.1084C24.1204 20.5465 24.9334 22.3388 26.3509 25.2054C27.7684 28.072 28.1326 34.5047 23.4394 37.4267C18.7462 40.3488 11.6193 35.9459 9.86663 33.5043C8.11394 31.0627 7.87902 28.3439 7.88958 27.0663C5.85181 28.8876 4.26806 30.9729 3.48938 32.0288C2.70806 33.0846 2.74237 33.1295 2.47577 32.8761H2.48105Z" fill="white"/>
<path d="M18.1708 18.39C16.8246 18.7728 14.0398 19.0526 11.1996 17.0808C8.35943 15.1064 7.99516 12.6938 9.09587 11.923C10.1042 11.2183 12.4455 9.78497 17.6376 13.9107C21.1483 16.6981 21.6419 16.8168 22.1196 17.226C22.5974 17.6378 22.3018 17.0993 21.8689 16.2388C21.436 15.3783 19.0234 11.0177 16.8616 8.76608C14.6997 6.51451 10.7747 3.6875 5.99435 4.69847C1.21405 5.70943 -0.364434 10.173 0.0684595 12.6489C0.501353 15.1249 1.19293 17.1969 1.97953 18.3874C2.76613 19.5779 4.50298 20.668 7.8975 20.544C11.292 20.4199 16.0961 19.5752 17.1546 19.3324C18.213 19.0895 18.7119 18.7464 18.1708 18.39Z" fill="white"/>
<path d="M23.2071 15.9799C22.4707 14.4278 20.6995 10.4552 20.0818 7.47514C19.4641 4.49768 21.1588 0.783768 24.7381 0.142347C28.3174 -0.499074 33.5781 1.00022 36.5159 5.18925C39.4538 9.37829 39.3667 11.841 35.146 13.826C30.9253 15.811 28.1141 16.6187 27.6733 16.7269C27.2325 16.8351 25.9839 16.8668 26.9289 16.2544C27.8765 15.642 30.8302 14.1507 31.4901 11.2181C32.1474 8.28549 29.9513 7.10296 28.8769 6.85747C27.8026 6.61199 24.4715 6.77565 23.867 10.4711C23.3945 13.3535 23.5555 14.5836 23.5502 15.4018C23.545 16.2175 23.6981 17.0146 23.2071 15.9799Z" fill="white"/>
<path d="M28.4047 17.7197C29.7297 17.1786 32.8233 16.231 35.4946 16.0383C38.1659 15.8456 39.7179 15.8271 41.0113 15.8773C42.3047 15.9274 43.0729 15.9723 44.1551 18.1077C45.2426 20.2511 45.43 21.7319 45.7652 24.0917C46.1163 26.5544 44.361 30.9599 40.7659 31.5169C36.4422 32.1873 33.4146 31.3981 29.3179 26.1268C25.2213 20.8582 25.0629 19.3906 25.3744 19.5331C25.6832 19.6756 26.8262 20.7605 28.1196 21.9695C29.413 23.181 33.8396 25.4696 36.2627 24.8545C38.6859 24.2421 39.6124 21.2119 36.1703 19.2824C32.7283 17.3554 29.1807 17.8042 28.7689 17.9124C28.3545 18.0206 28.2384 17.8095 28.2384 17.8095L28.4073 17.7171L28.4047 17.7197Z" fill="white"/>
</svg>
