<svg width="53" height="49" viewBox="0 0 53 49" fill="none" xmlns="http://www.w3.org/2000/svg">
<path d="M2.92128 41.684C2.18746 40.9151 -0.0681499 39.6149 2.92128 36.1366C5.91071 32.6617 9.80539 29.7972 13.4685 28.3716C17.1346 26.9493 20.7586 25.9065 21.6609 25.5237C22.5631 25.1409 22.5902 26.0055 21.5496 26.517C20.509 27.0285 16.1662 30.7509 16.8158 33.7375C17.4654 36.724 21.8293 40.8095 25.0202 36.8758C28.2111 32.9422 27.336 27.6093 27.1886 26.682C27.0442 25.7547 27.1254 25.1739 27.351 25.7217C27.5766 26.2695 28.5029 28.5102 30.1179 32.0941C31.7329 35.6779 32.1479 43.7201 26.8006 47.3732C21.4533 51.0264 13.3332 45.5219 11.3362 42.4694C9.33922 39.4168 9.07156 36.0178 9.08359 34.4206C6.76182 36.6976 4.95734 39.3046 4.07014 40.6247C3.17993 41.9447 3.21901 42.0008 2.91526 41.684H2.92128Z" fill="#951913"/>
<path d="M20.797 23.5732C19.2632 24.0517 16.0903 24.4015 12.8543 21.9364C9.61823 19.468 9.2032 16.4517 10.4573 15.4881C11.6062 14.607 14.2738 12.8151 20.1895 17.973C24.1894 21.4579 24.7518 21.6064 25.2962 22.1179C25.8405 22.6327 25.5037 21.9595 25.0105 20.8837C24.5173 19.8079 21.7684 14.3562 19.3053 11.5413C16.8422 8.72632 12.3701 5.19198 6.92353 6.45589C1.477 7.71981 -0.321475 13.3002 0.171751 16.3956C0.664977 19.4911 1.45294 22.0816 2.34917 23.5699C3.2454 25.0582 5.22431 26.4211 9.09192 26.266C12.9595 26.1109 18.4331 25.0549 19.6391 24.7513C20.8451 24.4477 21.4135 24.0187 20.797 23.5732Z" fill="#951913"/>
<path d="M26.5351 20.5602C25.696 18.6198 23.678 13.6533 22.9742 9.92751C22.2705 6.20506 24.2013 1.5619 28.2794 0.759995C32.3575 -0.0419156 38.3514 1.83251 41.6987 7.06967C45.0461 12.3068 44.9468 15.3858 40.1379 17.8674C35.3289 20.349 32.126 21.3589 31.6237 21.4942C31.1215 21.6295 29.6989 21.6691 30.7756 20.9034C31.8553 20.1378 35.2206 18.2733 35.9725 14.607C36.7214 10.9406 34.2192 9.4622 32.9951 9.1553C31.7711 8.8484 27.9756 9.053 27.2869 13.6731C26.7486 17.2767 26.932 18.8145 26.926 19.8375C26.92 20.8572 27.0945 21.8539 26.5351 20.5602Z" fill="#951913"/>
<path d="M32.4575 22.735C33.9673 22.0585 37.492 20.8738 40.5356 20.6329C43.5792 20.392 45.3476 20.3689 46.8212 20.4316C48.2949 20.4943 49.1701 20.5504 50.4031 23.2201C51.6422 25.8997 51.8557 27.7511 52.2377 30.7013C52.6377 33.7802 50.6377 39.288 46.5415 39.9843C41.6153 40.8225 38.1657 39.8358 33.4981 33.2456C28.8305 26.6587 28.6501 24.8239 29.0049 25.0021C29.3568 25.1803 30.6591 26.5366 32.1327 28.0481C33.6064 29.5628 38.6499 32.4239 41.4108 31.655C44.1716 30.8894 45.2273 27.1009 41.3055 24.6886C37.3838 22.2796 33.3417 22.8406 32.8725 22.9759C32.4004 23.1112 32.2681 22.8472 32.2681 22.8472L32.4605 22.7317L32.4575 22.735Z" fill="#951913"/>
</svg>
